%TF.GenerationSoftware,KiCad,Pcbnew,(6.0.10-0)*%
%TF.CreationDate,2023-02-17T12:22:24-08:00*%
%TF.ProjectId,Lab 1 Exercise 2,4c616220-3120-4457-9865-726369736520,rev?*%
%TF.SameCoordinates,Original*%
%TF.FileFunction,Legend,Top*%
%TF.FilePolarity,Positive*%
%FSLAX46Y46*%
G04 Gerber Fmt 4.6, Leading zero omitted, Abs format (unit mm)*
G04 Created by KiCad (PCBNEW (6.0.10-0)) date 2023-02-17 12:22:24*
%MOMM*%
%LPD*%
G01*
G04 APERTURE LIST*
%ADD10C,0.150000*%
%ADD11C,0.120000*%
G04 APERTURE END LIST*
D10*
%TO.C,R1*%
X134182380Y-79906666D02*
X133706190Y-80240000D01*
X134182380Y-80478095D02*
X133182380Y-80478095D01*
X133182380Y-80097142D01*
X133230000Y-80001904D01*
X133277619Y-79954285D01*
X133372857Y-79906666D01*
X133515714Y-79906666D01*
X133610952Y-79954285D01*
X133658571Y-80001904D01*
X133706190Y-80097142D01*
X133706190Y-80478095D01*
X134182380Y-78954285D02*
X134182380Y-79525714D01*
X134182380Y-79240000D02*
X133182380Y-79240000D01*
X133325238Y-79335238D01*
X133420476Y-79430476D01*
X133468095Y-79525714D01*
%TO.C,U1*%
X138292380Y-82041904D02*
X139101904Y-82041904D01*
X139197142Y-81994285D01*
X139244761Y-81946666D01*
X139292380Y-81851428D01*
X139292380Y-81660952D01*
X139244761Y-81565714D01*
X139197142Y-81518095D01*
X139101904Y-81470476D01*
X138292380Y-81470476D01*
X139292380Y-80470476D02*
X139292380Y-81041904D01*
X139292380Y-80756190D02*
X138292380Y-80756190D01*
X138435238Y-80851428D01*
X138530476Y-80946666D01*
X138578095Y-81041904D01*
%TO.C,D1*%
X153572380Y-77878095D02*
X152572380Y-77878095D01*
X152572380Y-77640000D01*
X152620000Y-77497142D01*
X152715238Y-77401904D01*
X152810476Y-77354285D01*
X153000952Y-77306666D01*
X153143809Y-77306666D01*
X153334285Y-77354285D01*
X153429523Y-77401904D01*
X153524761Y-77497142D01*
X153572380Y-77640000D01*
X153572380Y-77878095D01*
X153572380Y-76354285D02*
X153572380Y-76925714D01*
X153572380Y-76640000D02*
X152572380Y-76640000D01*
X152715238Y-76735238D01*
X152810476Y-76830476D01*
X152858095Y-76925714D01*
%TO.C,R4*%
X157292380Y-90606666D02*
X156816190Y-90940000D01*
X157292380Y-91178095D02*
X156292380Y-91178095D01*
X156292380Y-90797142D01*
X156340000Y-90701904D01*
X156387619Y-90654285D01*
X156482857Y-90606666D01*
X156625714Y-90606666D01*
X156720952Y-90654285D01*
X156768571Y-90701904D01*
X156816190Y-90797142D01*
X156816190Y-91178095D01*
X156625714Y-89749523D02*
X157292380Y-89749523D01*
X156244761Y-89987619D02*
X156959047Y-90225714D01*
X156959047Y-89606666D01*
%TO.C,C1*%
X133015833Y-92587142D02*
X132968214Y-92634761D01*
X132825357Y-92682380D01*
X132730119Y-92682380D01*
X132587261Y-92634761D01*
X132492023Y-92539523D01*
X132444404Y-92444285D01*
X132396785Y-92253809D01*
X132396785Y-92110952D01*
X132444404Y-91920476D01*
X132492023Y-91825238D01*
X132587261Y-91730000D01*
X132730119Y-91682380D01*
X132825357Y-91682380D01*
X132968214Y-91730000D01*
X133015833Y-91777619D01*
X133968214Y-92682380D02*
X133396785Y-92682380D01*
X133682500Y-92682380D02*
X133682500Y-91682380D01*
X133587261Y-91825238D01*
X133492023Y-91920476D01*
X133396785Y-91968095D01*
%TO.C,D2*%
X146721904Y-95437380D02*
X146721904Y-94437380D01*
X146960000Y-94437380D01*
X147102857Y-94485000D01*
X147198095Y-94580238D01*
X147245714Y-94675476D01*
X147293333Y-94865952D01*
X147293333Y-95008809D01*
X147245714Y-95199285D01*
X147198095Y-95294523D01*
X147102857Y-95389761D01*
X146960000Y-95437380D01*
X146721904Y-95437380D01*
X147674285Y-94532619D02*
X147721904Y-94485000D01*
X147817142Y-94437380D01*
X148055238Y-94437380D01*
X148150476Y-94485000D01*
X148198095Y-94532619D01*
X148245714Y-94627857D01*
X148245714Y-94723095D01*
X148198095Y-94865952D01*
X147626666Y-95437380D01*
X148245714Y-95437380D01*
%TO.C,R2*%
X134182380Y-87066666D02*
X133706190Y-87400000D01*
X134182380Y-87638095D02*
X133182380Y-87638095D01*
X133182380Y-87257142D01*
X133230000Y-87161904D01*
X133277619Y-87114285D01*
X133372857Y-87066666D01*
X133515714Y-87066666D01*
X133610952Y-87114285D01*
X133658571Y-87161904D01*
X133706190Y-87257142D01*
X133706190Y-87638095D01*
X133277619Y-86685714D02*
X133230000Y-86638095D01*
X133182380Y-86542857D01*
X133182380Y-86304761D01*
X133230000Y-86209523D01*
X133277619Y-86161904D01*
X133372857Y-86114285D01*
X133468095Y-86114285D01*
X133610952Y-86161904D01*
X134182380Y-86733333D01*
X134182380Y-86114285D01*
%TO.C,V1*%
X143970476Y-75652380D02*
X144303809Y-76652380D01*
X144637142Y-75652380D01*
X145494285Y-76652380D02*
X144922857Y-76652380D01*
X145208571Y-76652380D02*
X145208571Y-75652380D01*
X145113333Y-75795238D01*
X145018095Y-75890476D01*
X144922857Y-75938095D01*
%TO.C,R3*%
X157042380Y-84526666D02*
X156566190Y-84860000D01*
X157042380Y-85098095D02*
X156042380Y-85098095D01*
X156042380Y-84717142D01*
X156090000Y-84621904D01*
X156137619Y-84574285D01*
X156232857Y-84526666D01*
X156375714Y-84526666D01*
X156470952Y-84574285D01*
X156518571Y-84621904D01*
X156566190Y-84717142D01*
X156566190Y-85098095D01*
X156042380Y-84193333D02*
X156042380Y-83574285D01*
X156423333Y-83907619D01*
X156423333Y-83764761D01*
X156470952Y-83669523D01*
X156518571Y-83621904D01*
X156613809Y-83574285D01*
X156851904Y-83574285D01*
X156947142Y-83621904D01*
X156994761Y-83669523D01*
X157042380Y-83764761D01*
X157042380Y-84050476D01*
X156994761Y-84145714D01*
X156947142Y-84193333D01*
%TO.C,C2*%
X139695833Y-95818394D02*
X139648214Y-95866013D01*
X139505357Y-95913632D01*
X139410119Y-95913632D01*
X139267261Y-95866013D01*
X139172023Y-95770775D01*
X139124404Y-95675537D01*
X139076785Y-95485061D01*
X139076785Y-95342204D01*
X139124404Y-95151728D01*
X139172023Y-95056490D01*
X139267261Y-94961252D01*
X139410119Y-94913632D01*
X139505357Y-94913632D01*
X139648214Y-94961252D01*
X139695833Y-95008871D01*
X140076785Y-95008871D02*
X140124404Y-94961252D01*
X140219642Y-94913632D01*
X140457738Y-94913632D01*
X140552976Y-94961252D01*
X140600595Y-95008871D01*
X140648214Y-95104109D01*
X140648214Y-95199347D01*
X140600595Y-95342204D01*
X140029166Y-95913632D01*
X140648214Y-95913632D01*
D11*
%TO.C,R1*%
X132815000Y-79512936D02*
X132815000Y-79967064D01*
X131345000Y-79512936D02*
X131345000Y-79967064D01*
%TO.C,U1*%
X144800000Y-81280000D02*
X144800000Y-83230000D01*
X139680000Y-81280000D02*
X139680000Y-79330000D01*
X144800000Y-81280000D02*
X144800000Y-79330000D01*
X139680000Y-81280000D02*
X139680000Y-84730000D01*
%TO.C,D1*%
X153805000Y-75540000D02*
X153805000Y-79600000D01*
X156075000Y-79600000D02*
X156075000Y-75540000D01*
X153805000Y-79600000D02*
X156075000Y-79600000D01*
%TO.C,R4*%
X154455000Y-90212936D02*
X154455000Y-90667064D01*
X155925000Y-90212936D02*
X155925000Y-90667064D01*
%TO.C,C1*%
X130697500Y-94915000D02*
X134782500Y-94915000D01*
X134782500Y-93045000D02*
X130697500Y-93045000D01*
X130697500Y-93045000D02*
X130697500Y-94915000D01*
%TO.C,D2*%
X145000000Y-97940000D02*
X149060000Y-97940000D01*
X149060000Y-95670000D02*
X145000000Y-95670000D01*
X145000000Y-95670000D02*
X145000000Y-97940000D01*
%TO.C,R2*%
X132815000Y-86672936D02*
X132815000Y-87127064D01*
X131345000Y-86672936D02*
X131345000Y-87127064D01*
%TO.C,V1*%
X139700000Y-67310000D02*
X139700000Y-74930000D01*
X139700000Y-74930000D02*
X149860000Y-74930000D01*
X149860000Y-67310000D02*
X139700000Y-67310000D01*
X149860000Y-74930000D02*
X149860000Y-67310000D01*
X139700000Y-68580000D02*
X149860000Y-68580000D01*
%TO.C,R3*%
X155675000Y-84132936D02*
X155675000Y-84587064D01*
X154205000Y-84132936D02*
X154205000Y-84587064D01*
%TO.C,C2*%
X140123752Y-94516252D02*
X139601248Y-94516252D01*
X140123752Y-93046252D02*
X139601248Y-93046252D01*
%TD*%
M02*
