%TF.GenerationSoftware,KiCad,Pcbnew,(6.0.10-0)*%
%TF.CreationDate,2023-02-17T12:22:24-08:00*%
%TF.ProjectId,Lab 1 Exercise 2,4c616220-3120-4457-9865-726369736520,rev?*%
%TF.SameCoordinates,Original*%
%TF.FileFunction,Copper,L1,Top*%
%TF.FilePolarity,Positive*%
%FSLAX46Y46*%
G04 Gerber Fmt 4.6, Leading zero omitted, Abs format (unit mm)*
G04 Created by KiCad (PCBNEW (6.0.10-0)) date 2023-02-17 12:22:24*
%MOMM*%
%LPD*%
G01*
G04 APERTURE LIST*
G04 Aperture macros list*
%AMRoundRect*
0 Rectangle with rounded corners*
0 $1 Rounding radius*
0 $2 $3 $4 $5 $6 $7 $8 $9 X,Y pos of 4 corners*
0 Add a 4 corners polygon primitive as box body*
4,1,4,$2,$3,$4,$5,$6,$7,$8,$9,$2,$3,0*
0 Add four circle primitives for the rounded corners*
1,1,$1+$1,$2,$3*
1,1,$1+$1,$4,$5*
1,1,$1+$1,$6,$7*
1,1,$1+$1,$8,$9*
0 Add four rect primitives between the rounded corners*
20,1,$1+$1,$2,$3,$4,$5,0*
20,1,$1+$1,$4,$5,$6,$7,0*
20,1,$1+$1,$6,$7,$8,$9,0*
20,1,$1+$1,$8,$9,$2,$3,0*%
G04 Aperture macros list end*
%TA.AperFunction,SMDPad,CuDef*%
%ADD10RoundRect,0.250000X-0.450000X0.350000X-0.450000X-0.350000X0.450000X-0.350000X0.450000X0.350000X0*%
%TD*%
%TA.AperFunction,SMDPad,CuDef*%
%ADD11RoundRect,0.150000X0.150000X-0.825000X0.150000X0.825000X-0.150000X0.825000X-0.150000X-0.825000X0*%
%TD*%
%TA.AperFunction,SMDPad,CuDef*%
%ADD12R,3.000000X2.290000*%
%TD*%
%TA.AperFunction,SMDPad,CuDef*%
%ADD13RoundRect,0.250001X0.624999X-0.462499X0.624999X0.462499X-0.624999X0.462499X-0.624999X-0.462499X0*%
%TD*%
%TA.AperFunction,SMDPad,CuDef*%
%ADD14RoundRect,0.250000X-0.537500X-0.425000X0.537500X-0.425000X0.537500X0.425000X-0.537500X0.425000X0*%
%TD*%
%TA.AperFunction,SMDPad,CuDef*%
%ADD15RoundRect,0.250001X-0.462499X-0.624999X0.462499X-0.624999X0.462499X0.624999X-0.462499X0.624999X0*%
%TD*%
%TA.AperFunction,ComponentPad*%
%ADD16R,3.000000X3.000000*%
%TD*%
%TA.AperFunction,ComponentPad*%
%ADD17C,3.000000*%
%TD*%
%TA.AperFunction,SMDPad,CuDef*%
%ADD18RoundRect,0.250000X0.337500X0.475000X-0.337500X0.475000X-0.337500X-0.475000X0.337500X-0.475000X0*%
%TD*%
%TA.AperFunction,ViaPad*%
%ADD19C,0.800000*%
%TD*%
%TA.AperFunction,Conductor*%
%ADD20C,0.254000*%
%TD*%
%TA.AperFunction,Conductor*%
%ADD21C,0.508000*%
%TD*%
G04 APERTURE END LIST*
D10*
%TO.P,R1,1*%
%TO.N,Net-(D1-Pad2)*%
X132080000Y-78740000D03*
%TO.P,R1,2*%
%TO.N,/pin_7*%
X132080000Y-80740000D03*
%TD*%
D11*
%TO.P,U1,1,GND*%
%TO.N,GND*%
X140335000Y-83755000D03*
%TO.P,U1,2,TR*%
%TO.N,/pin_2*%
X141605000Y-83755000D03*
%TO.P,U1,3,Q*%
%TO.N,/pin_3*%
X142875000Y-83755000D03*
%TO.P,U1,4,R*%
%TO.N,/+9V*%
X144145000Y-83755000D03*
%TO.P,U1,5,CV*%
%TO.N,Net-(C2-Pad1)*%
X144145000Y-78805000D03*
%TO.P,U1,6,THR*%
%TO.N,/pin_2*%
X142875000Y-78805000D03*
%TO.P,U1,7,DIS*%
%TO.N,/pin_7*%
X141605000Y-78805000D03*
%TO.P,U1,8,VCC*%
%TO.N,Net-(D1-Pad2)*%
X140335000Y-78805000D03*
D12*
%TO.P,U1,9*%
%TO.N,N/C*%
X142240000Y-81280000D03*
%TD*%
D13*
%TO.P,D1,1,K*%
%TO.N,Net-(D1-Pad1)*%
X154940000Y-78627500D03*
%TO.P,D1,2,A*%
%TO.N,Net-(D1-Pad2)*%
X154940000Y-75652500D03*
%TD*%
D10*
%TO.P,R4,1*%
%TO.N,/pin_3*%
X155190000Y-89440000D03*
%TO.P,R4,2*%
%TO.N,Net-(D2-Pad2)*%
X155190000Y-91440000D03*
%TD*%
D14*
%TO.P,C1,1*%
%TO.N,/pin_2*%
X131745000Y-93980000D03*
%TO.P,C1,2*%
%TO.N,GND*%
X134620000Y-93980000D03*
%TD*%
D15*
%TO.P,D2,1,K*%
%TO.N,GND*%
X145972500Y-96805000D03*
%TO.P,D2,2,A*%
%TO.N,Net-(D2-Pad2)*%
X148947500Y-96805000D03*
%TD*%
D10*
%TO.P,R2,1*%
%TO.N,/pin_7*%
X132080000Y-85900000D03*
%TO.P,R2,2*%
%TO.N,/pin_2*%
X132080000Y-87900000D03*
%TD*%
D16*
%TO.P,V1,1,Pin_1*%
%TO.N,Net-(D1-Pad2)*%
X147320000Y-71120000D03*
D17*
%TO.P,V1,2,Pin_2*%
%TO.N,GND*%
X142240000Y-71120000D03*
%TD*%
D10*
%TO.P,R3,1*%
%TO.N,Net-(D1-Pad1)*%
X154940000Y-83360000D03*
%TO.P,R3,2*%
%TO.N,/pin_3*%
X154940000Y-85360000D03*
%TD*%
D18*
%TO.P,C2,1*%
%TO.N,Net-(C2-Pad1)*%
X140900000Y-93781252D03*
%TO.P,C2,2*%
%TO.N,GND*%
X138825000Y-93781252D03*
%TD*%
D19*
%TO.N,/pin_2*%
X139700000Y-86360000D03*
X147320000Y-88900000D03*
%TO.N,GND*%
X137160000Y-91440000D03*
X137160000Y-86360000D03*
%TO.N,/pin_7*%
X144780000Y-76200000D03*
X134620000Y-81280000D03*
%TO.N,/pin_3*%
X142240000Y-86360000D03*
X154940000Y-86360000D03*
%TD*%
D20*
%TO.N,/pin_2*%
X143797420Y-77503000D02*
X144492580Y-77503000D01*
X141670000Y-83820000D02*
X141670000Y-84390000D01*
X144492580Y-77503000D02*
X147320000Y-80330420D01*
X141605000Y-83755000D02*
X141670000Y-83820000D01*
X131745000Y-93980000D02*
X131745000Y-88235000D01*
X142875000Y-78805000D02*
X142875000Y-78425420D01*
X139700000Y-86360000D02*
X138160000Y-87900000D01*
X147320000Y-80330420D02*
X147320000Y-88900000D01*
X131745000Y-88235000D02*
X132080000Y-87900000D01*
X142875000Y-78425420D02*
X143797420Y-77503000D01*
X141605000Y-83755000D02*
X141725933Y-83875933D01*
X141605000Y-83755000D02*
X141605000Y-84455000D01*
X141670000Y-84390000D02*
X139700000Y-86360000D01*
X138160000Y-87900000D02*
X132080000Y-87900000D01*
X141605000Y-84455000D02*
X139700000Y-86360000D01*
%TO.N,GND*%
X138825000Y-93781252D02*
X134818748Y-93781252D01*
X137160000Y-92116252D02*
X137160000Y-91440000D01*
X138083999Y-71120000D02*
X130630500Y-78573499D01*
X130630500Y-94644001D02*
X132506499Y-96520000D01*
X130630500Y-78573499D02*
X130630500Y-94644001D01*
X134818748Y-93781252D02*
X134620000Y-93980000D01*
X142240000Y-71120000D02*
X138083999Y-71120000D01*
X138825000Y-93781252D02*
X137160000Y-92116252D01*
X132506499Y-96520000D02*
X136086252Y-96520000D01*
X145972500Y-96805000D02*
X141848748Y-96805000D01*
X141848748Y-96805000D02*
X138825000Y-93781252D01*
X139765000Y-83755000D02*
X137160000Y-86360000D01*
X136086252Y-96520000D02*
X138825000Y-93781252D01*
X140335000Y-83755000D02*
X139765000Y-83755000D01*
%TO.N,Net-(C2-Pad1)*%
X144067000Y-79808000D02*
X144067000Y-78883000D01*
X144772000Y-89909252D02*
X144772000Y-86368000D01*
X144772000Y-80513000D02*
X144067000Y-79808000D01*
X140900000Y-93781252D02*
X144772000Y-89909252D01*
X144772000Y-86368000D02*
X144772000Y-80513000D01*
X144067000Y-78883000D02*
X144145000Y-78805000D01*
%TO.N,Net-(D1-Pad1)*%
X154940000Y-78627500D02*
X154940000Y-83360000D01*
%TO.N,Net-(D1-Pad2)*%
X140335000Y-78105000D02*
X140335000Y-78805000D01*
D21*
X147320000Y-71120000D02*
X150407500Y-71120000D01*
D20*
X140270000Y-78740000D02*
X140335000Y-78805000D01*
X132080000Y-78740000D02*
X140270000Y-78740000D01*
D21*
X147320000Y-71120000D02*
X140335000Y-78105000D01*
X150407500Y-71120000D02*
X154940000Y-75652500D01*
D20*
%TO.N,Net-(D2-Pad2)*%
X155190000Y-91440000D02*
X154312500Y-91440000D01*
X154312500Y-91440000D02*
X148947500Y-96805000D01*
%TO.N,/pin_7*%
X143830420Y-76200000D02*
X144780000Y-76200000D01*
X132080000Y-85900000D02*
X132080000Y-80740000D01*
X132080000Y-80740000D02*
X132620000Y-81280000D01*
X141605000Y-78425420D02*
X143830420Y-76200000D01*
X132620000Y-81280000D02*
X134620000Y-81280000D01*
X141605000Y-78805000D02*
X141605000Y-78425420D01*
%TO.N,/pin_3*%
X154940000Y-86360000D02*
X154940000Y-89190000D01*
X154940000Y-89190000D02*
X155190000Y-89440000D01*
X154940000Y-85360000D02*
X154940000Y-86360000D01*
X142875000Y-83755000D02*
X142240000Y-84390000D01*
X142240000Y-84390000D02*
X142240000Y-86360000D01*
%TD*%
%TA.AperFunction,Conductor*%
%TO.N,GND*%
G36*
X159453621Y-64028502D02*
G01*
X159500114Y-64082158D01*
X159511500Y-64134500D01*
X159511500Y-100965500D01*
X159491498Y-101033621D01*
X159437842Y-101080114D01*
X159385500Y-101091500D01*
X127634500Y-101091500D01*
X127566379Y-101071498D01*
X127519886Y-101017842D01*
X127508500Y-100965500D01*
X127508500Y-97477096D01*
X144752000Y-97477096D01*
X144752337Y-97483611D01*
X144762256Y-97579203D01*
X144765150Y-97592602D01*
X144816588Y-97746783D01*
X144822762Y-97759962D01*
X144908063Y-97897807D01*
X144917099Y-97909208D01*
X145031830Y-98023739D01*
X145043241Y-98032751D01*
X145181245Y-98117818D01*
X145194423Y-98123962D01*
X145348716Y-98175139D01*
X145362081Y-98178005D01*
X145456439Y-98187672D01*
X145462855Y-98188000D01*
X145700385Y-98188000D01*
X145715624Y-98183525D01*
X145716829Y-98182135D01*
X145718500Y-98174452D01*
X145718500Y-98169885D01*
X146226500Y-98169885D01*
X146230975Y-98185124D01*
X146232365Y-98186329D01*
X146240048Y-98188000D01*
X146482096Y-98188000D01*
X146488611Y-98187663D01*
X146584203Y-98177744D01*
X146597602Y-98174850D01*
X146751783Y-98123412D01*
X146764962Y-98117238D01*
X146902807Y-98031937D01*
X146914208Y-98022901D01*
X147028739Y-97908170D01*
X147037751Y-97896759D01*
X147122818Y-97758755D01*
X147128962Y-97745577D01*
X147180139Y-97591284D01*
X147183005Y-97577919D01*
X147192672Y-97483561D01*
X147192834Y-97480400D01*
X147726500Y-97480400D01*
X147726837Y-97483646D01*
X147726837Y-97483650D01*
X147736752Y-97579203D01*
X147737474Y-97586165D01*
X147793450Y-97753945D01*
X147886522Y-97904348D01*
X148011697Y-98029305D01*
X148017927Y-98033145D01*
X148017928Y-98033146D01*
X148155090Y-98117694D01*
X148162262Y-98122115D01*
X148242005Y-98148564D01*
X148323611Y-98175632D01*
X148323613Y-98175632D01*
X148330139Y-98177797D01*
X148336975Y-98178497D01*
X148336978Y-98178498D01*
X148380031Y-98182909D01*
X148434600Y-98188500D01*
X149460400Y-98188500D01*
X149463646Y-98188163D01*
X149463650Y-98188163D01*
X149559307Y-98178238D01*
X149559311Y-98178237D01*
X149566165Y-98177526D01*
X149572701Y-98175345D01*
X149572703Y-98175345D01*
X149704805Y-98131272D01*
X149733945Y-98121550D01*
X149884348Y-98028478D01*
X150009305Y-97903303D01*
X150102115Y-97752738D01*
X150155196Y-97592703D01*
X150155632Y-97591389D01*
X150155632Y-97591387D01*
X150157797Y-97584861D01*
X150158509Y-97577919D01*
X150168172Y-97483598D01*
X150168500Y-97480400D01*
X150168500Y-96534922D01*
X150188502Y-96466801D01*
X150205405Y-96445827D01*
X154193320Y-92457913D01*
X154255632Y-92423887D01*
X154326448Y-92428952D01*
X154348532Y-92439749D01*
X154411030Y-92478274D01*
X154411033Y-92478275D01*
X154417262Y-92482115D01*
X154497005Y-92508564D01*
X154578611Y-92535632D01*
X154578613Y-92535632D01*
X154585139Y-92537797D01*
X154591975Y-92538497D01*
X154591978Y-92538498D01*
X154635031Y-92542909D01*
X154689600Y-92548500D01*
X155690400Y-92548500D01*
X155693646Y-92548163D01*
X155693650Y-92548163D01*
X155789308Y-92538238D01*
X155789312Y-92538237D01*
X155796166Y-92537526D01*
X155802702Y-92535345D01*
X155802704Y-92535345D01*
X155934806Y-92491272D01*
X155963946Y-92481550D01*
X156114348Y-92388478D01*
X156239305Y-92263303D01*
X156332115Y-92112738D01*
X156387797Y-91944861D01*
X156398500Y-91840400D01*
X156398500Y-91039600D01*
X156391596Y-90973058D01*
X156388238Y-90940692D01*
X156388237Y-90940688D01*
X156387526Y-90933834D01*
X156377828Y-90904764D01*
X156333868Y-90773002D01*
X156331550Y-90766054D01*
X156238478Y-90615652D01*
X156151891Y-90529216D01*
X156117812Y-90466934D01*
X156122815Y-90396114D01*
X156151736Y-90351025D01*
X156234134Y-90268483D01*
X156239305Y-90263303D01*
X156246644Y-90251397D01*
X156328275Y-90118968D01*
X156328276Y-90118966D01*
X156332115Y-90112738D01*
X156375609Y-89981607D01*
X156385632Y-89951389D01*
X156385632Y-89951387D01*
X156387797Y-89944861D01*
X156390193Y-89921481D01*
X156398172Y-89843598D01*
X156398500Y-89840400D01*
X156398500Y-89039600D01*
X156395238Y-89008163D01*
X156388238Y-88940692D01*
X156388237Y-88940688D01*
X156387526Y-88933834D01*
X156378429Y-88906565D01*
X156333868Y-88773002D01*
X156331550Y-88766054D01*
X156238478Y-88615652D01*
X156113303Y-88490695D01*
X156102166Y-88483830D01*
X155968968Y-88401725D01*
X155968966Y-88401724D01*
X155962738Y-88397885D01*
X155842934Y-88358148D01*
X155801389Y-88344368D01*
X155801387Y-88344368D01*
X155794861Y-88342203D01*
X155788025Y-88341503D01*
X155788022Y-88341502D01*
X155690400Y-88331500D01*
X155690522Y-88330310D01*
X155628063Y-88308453D01*
X155584366Y-88252496D01*
X155575500Y-88206067D01*
X155575500Y-87060303D01*
X155595502Y-86992182D01*
X155607864Y-86975993D01*
X155674621Y-86901852D01*
X155674622Y-86901851D01*
X155679040Y-86896944D01*
X155774527Y-86731556D01*
X155833542Y-86549928D01*
X155853504Y-86360000D01*
X155856298Y-86360294D01*
X155872816Y-86304038D01*
X155889641Y-86283141D01*
X155984134Y-86188483D01*
X155989305Y-86183303D01*
X156082115Y-86032738D01*
X156137797Y-85864861D01*
X156141495Y-85828774D01*
X156148172Y-85763598D01*
X156148500Y-85760400D01*
X156148500Y-84959600D01*
X156137526Y-84853834D01*
X156081550Y-84686054D01*
X155988478Y-84535652D01*
X155901891Y-84449216D01*
X155867812Y-84386934D01*
X155872815Y-84316114D01*
X155901736Y-84271025D01*
X155984134Y-84188483D01*
X155989305Y-84183303D01*
X156082115Y-84032738D01*
X156137797Y-83864861D01*
X156148500Y-83760400D01*
X156148500Y-82959600D01*
X156138371Y-82861978D01*
X156138238Y-82860692D01*
X156138237Y-82860688D01*
X156137526Y-82853834D01*
X156081550Y-82686054D01*
X155988478Y-82535652D01*
X155863303Y-82410695D01*
X155724852Y-82325352D01*
X155718968Y-82321725D01*
X155718966Y-82321724D01*
X155712738Y-82317885D01*
X155661832Y-82301000D01*
X155603472Y-82260568D01*
X155576236Y-82195004D01*
X155575500Y-82181407D01*
X155575500Y-79966243D01*
X155595502Y-79898122D01*
X155649158Y-79851629D01*
X155688495Y-79840916D01*
X155695530Y-79840186D01*
X155721165Y-79837526D01*
X155727701Y-79835345D01*
X155727703Y-79835345D01*
X155861534Y-79790695D01*
X155888945Y-79781550D01*
X156039348Y-79688478D01*
X156164305Y-79563303D01*
X156202401Y-79501500D01*
X156253275Y-79418968D01*
X156253276Y-79418966D01*
X156257115Y-79412738D01*
X156312797Y-79244861D01*
X156323500Y-79140400D01*
X156323500Y-78114600D01*
X156319309Y-78074209D01*
X156313238Y-78015693D01*
X156313237Y-78015689D01*
X156312526Y-78008835D01*
X156302406Y-77978500D01*
X156258868Y-77848003D01*
X156256550Y-77841055D01*
X156163478Y-77690652D01*
X156038303Y-77565695D01*
X156032072Y-77561854D01*
X155893968Y-77476725D01*
X155893966Y-77476724D01*
X155887738Y-77472885D01*
X155727254Y-77419655D01*
X155726389Y-77419368D01*
X155726387Y-77419368D01*
X155719861Y-77417203D01*
X155713025Y-77416503D01*
X155713022Y-77416502D01*
X155669969Y-77412091D01*
X155615400Y-77406500D01*
X154264600Y-77406500D01*
X154261354Y-77406837D01*
X154261350Y-77406837D01*
X154165693Y-77416762D01*
X154165689Y-77416763D01*
X154158835Y-77417474D01*
X154152299Y-77419655D01*
X154152297Y-77419655D01*
X154056820Y-77451509D01*
X153991055Y-77473450D01*
X153840652Y-77566522D01*
X153835479Y-77571704D01*
X153775787Y-77631500D01*
X153715695Y-77691697D01*
X153711855Y-77697927D01*
X153711854Y-77697928D01*
X153709514Y-77701725D01*
X153622885Y-77842262D01*
X153567203Y-78010139D01*
X153556500Y-78114600D01*
X153556500Y-79140400D01*
X153556837Y-79143646D01*
X153556837Y-79143650D01*
X153566762Y-79239307D01*
X153566763Y-79239311D01*
X153567474Y-79246165D01*
X153569655Y-79252701D01*
X153569655Y-79252703D01*
X153610624Y-79375500D01*
X153623450Y-79413945D01*
X153716522Y-79564348D01*
X153841697Y-79689305D01*
X153847927Y-79693145D01*
X153847928Y-79693146D01*
X153985090Y-79777694D01*
X153992262Y-79782115D01*
X154072005Y-79808564D01*
X154153611Y-79835632D01*
X154153613Y-79835632D01*
X154160139Y-79837797D01*
X154166977Y-79838498D01*
X154166979Y-79838498D01*
X154187134Y-79840563D01*
X154190581Y-79840916D01*
X154191342Y-79840994D01*
X154257069Y-79867835D01*
X154297852Y-79925950D01*
X154304500Y-79966338D01*
X154304500Y-82181470D01*
X154284498Y-82249591D01*
X154230842Y-82296084D01*
X154218376Y-82300994D01*
X154166054Y-82318450D01*
X154015652Y-82411522D01*
X153890695Y-82536697D01*
X153886855Y-82542927D01*
X153886854Y-82542928D01*
X153807475Y-82671705D01*
X153797885Y-82687262D01*
X153795581Y-82694209D01*
X153749657Y-82832667D01*
X153742203Y-82855139D01*
X153731500Y-82959600D01*
X153731500Y-83760400D01*
X153742474Y-83866166D01*
X153798450Y-84033946D01*
X153891522Y-84184348D01*
X153896704Y-84189521D01*
X153978109Y-84270784D01*
X154012188Y-84333066D01*
X154007185Y-84403886D01*
X153978264Y-84448975D01*
X153902940Y-84524431D01*
X153890695Y-84536697D01*
X153886855Y-84542927D01*
X153886854Y-84542928D01*
X153804004Y-84677336D01*
X153797885Y-84687262D01*
X153795581Y-84694209D01*
X153746893Y-84841000D01*
X153742203Y-84855139D01*
X153741503Y-84861975D01*
X153741502Y-84861978D01*
X153737091Y-84905031D01*
X153731500Y-84959600D01*
X153731500Y-85760400D01*
X153731837Y-85763646D01*
X153731837Y-85763650D01*
X153737492Y-85818148D01*
X153742474Y-85866166D01*
X153798450Y-86033946D01*
X153891522Y-86184348D01*
X153896704Y-86189521D01*
X153990204Y-86282858D01*
X154024283Y-86345140D01*
X154025894Y-86360063D01*
X154026496Y-86360000D01*
X154046458Y-86549928D01*
X154105473Y-86731556D01*
X154200960Y-86896944D01*
X154205378Y-86901851D01*
X154205379Y-86901852D01*
X154272136Y-86975993D01*
X154302854Y-87040000D01*
X154304500Y-87060303D01*
X154304500Y-88400902D01*
X154284498Y-88469023D01*
X154264849Y-88490721D01*
X154265652Y-88491522D01*
X154140695Y-88616697D01*
X154136855Y-88622927D01*
X154136854Y-88622928D01*
X154074338Y-88724348D01*
X154047885Y-88767262D01*
X154045581Y-88774209D01*
X154001681Y-88906565D01*
X153992203Y-88935139D01*
X153991503Y-88941975D01*
X153991502Y-88941978D01*
X153987091Y-88985031D01*
X153981500Y-89039600D01*
X153981500Y-89840400D01*
X153981837Y-89843646D01*
X153981837Y-89843650D01*
X153991544Y-89937202D01*
X153992474Y-89946166D01*
X154048450Y-90113946D01*
X154141522Y-90264348D01*
X154146704Y-90269521D01*
X154228109Y-90350784D01*
X154262188Y-90413066D01*
X154257185Y-90483886D01*
X154228264Y-90528975D01*
X154152940Y-90604431D01*
X154140695Y-90616697D01*
X154047885Y-90767262D01*
X154045581Y-90774209D01*
X154025912Y-90833509D01*
X153980382Y-90895776D01*
X153968000Y-90904773D01*
X153958090Y-90911281D01*
X153926732Y-90929826D01*
X153926728Y-90929829D01*
X153919902Y-90933866D01*
X153905518Y-90948250D01*
X153890484Y-90961091D01*
X153874013Y-90973058D01*
X153868960Y-90979166D01*
X153845723Y-91007255D01*
X153837733Y-91016035D01*
X149469172Y-95384595D01*
X149406860Y-95418621D01*
X149380077Y-95421500D01*
X148434600Y-95421500D01*
X148431354Y-95421837D01*
X148431350Y-95421837D01*
X148335693Y-95431762D01*
X148335689Y-95431763D01*
X148328835Y-95432474D01*
X148322299Y-95434655D01*
X148322297Y-95434655D01*
X148305932Y-95440115D01*
X148161055Y-95488450D01*
X148010652Y-95581522D01*
X147885695Y-95706697D01*
X147792885Y-95857262D01*
X147790581Y-95864209D01*
X147739771Y-96017398D01*
X147737203Y-96025139D01*
X147736503Y-96031975D01*
X147736502Y-96031978D01*
X147732091Y-96075031D01*
X147726500Y-96129600D01*
X147726500Y-97480400D01*
X147192834Y-97480400D01*
X147193000Y-97477145D01*
X147193000Y-97077115D01*
X147188525Y-97061876D01*
X147187135Y-97060671D01*
X147179452Y-97059000D01*
X146244615Y-97059000D01*
X146229376Y-97063475D01*
X146228171Y-97064865D01*
X146226500Y-97072548D01*
X146226500Y-98169885D01*
X145718500Y-98169885D01*
X145718500Y-97077115D01*
X145714025Y-97061876D01*
X145712635Y-97060671D01*
X145704952Y-97059000D01*
X144770115Y-97059000D01*
X144754876Y-97063475D01*
X144753671Y-97064865D01*
X144752000Y-97072548D01*
X144752000Y-97477096D01*
X127508500Y-97477096D01*
X127508500Y-96532885D01*
X144752000Y-96532885D01*
X144756475Y-96548124D01*
X144757865Y-96549329D01*
X144765548Y-96551000D01*
X145700385Y-96551000D01*
X145715624Y-96546525D01*
X145716829Y-96545135D01*
X145718500Y-96537452D01*
X145718500Y-96532885D01*
X146226500Y-96532885D01*
X146230975Y-96548124D01*
X146232365Y-96549329D01*
X146240048Y-96551000D01*
X147174885Y-96551000D01*
X147190124Y-96546525D01*
X147191329Y-96545135D01*
X147193000Y-96537452D01*
X147193000Y-96132904D01*
X147192663Y-96126389D01*
X147182744Y-96030797D01*
X147179850Y-96017398D01*
X147128412Y-95863217D01*
X147122238Y-95850038D01*
X147036937Y-95712193D01*
X147027901Y-95700792D01*
X146913170Y-95586261D01*
X146901759Y-95577249D01*
X146763755Y-95492182D01*
X146750577Y-95486038D01*
X146596284Y-95434861D01*
X146582919Y-95431995D01*
X146488561Y-95422328D01*
X146482144Y-95422000D01*
X146244615Y-95422000D01*
X146229376Y-95426475D01*
X146228171Y-95427865D01*
X146226500Y-95435548D01*
X146226500Y-96532885D01*
X145718500Y-96532885D01*
X145718500Y-95440115D01*
X145714025Y-95424876D01*
X145712635Y-95423671D01*
X145704952Y-95422000D01*
X145462904Y-95422000D01*
X145456389Y-95422337D01*
X145360797Y-95432256D01*
X145347398Y-95435150D01*
X145193217Y-95486588D01*
X145180038Y-95492762D01*
X145042193Y-95578063D01*
X145030792Y-95587099D01*
X144916261Y-95701830D01*
X144907249Y-95713241D01*
X144822182Y-95851245D01*
X144816038Y-95864423D01*
X144764861Y-96018716D01*
X144761995Y-96032081D01*
X144752328Y-96126439D01*
X144752000Y-96132856D01*
X144752000Y-96532885D01*
X127508500Y-96532885D01*
X127508500Y-94455400D01*
X130449000Y-94455400D01*
X130449337Y-94458646D01*
X130449337Y-94458650D01*
X130459252Y-94554206D01*
X130459974Y-94561166D01*
X130462155Y-94567702D01*
X130462155Y-94567704D01*
X130500020Y-94681199D01*
X130515950Y-94728946D01*
X130609022Y-94879348D01*
X130734197Y-95004305D01*
X130740427Y-95008145D01*
X130740428Y-95008146D01*
X130877788Y-95092816D01*
X130884762Y-95097115D01*
X130964505Y-95123564D01*
X131046111Y-95150632D01*
X131046113Y-95150632D01*
X131052639Y-95152797D01*
X131059475Y-95153497D01*
X131059478Y-95153498D01*
X131102531Y-95157909D01*
X131157100Y-95163500D01*
X132332900Y-95163500D01*
X132336146Y-95163163D01*
X132336150Y-95163163D01*
X132431808Y-95153238D01*
X132431812Y-95153237D01*
X132438666Y-95152526D01*
X132445202Y-95150345D01*
X132445204Y-95150345D01*
X132577306Y-95106272D01*
X132606446Y-95096550D01*
X132756848Y-95003478D01*
X132881805Y-94878303D01*
X132896336Y-94854730D01*
X132970775Y-94733968D01*
X132970776Y-94733966D01*
X132974615Y-94727738D01*
X133025927Y-94573036D01*
X133028132Y-94566389D01*
X133028132Y-94566387D01*
X133030297Y-94559861D01*
X133041000Y-94455400D01*
X133041000Y-94452095D01*
X133324501Y-94452095D01*
X133324838Y-94458614D01*
X133334757Y-94554206D01*
X133337649Y-94567600D01*
X133389088Y-94721784D01*
X133395261Y-94734962D01*
X133480563Y-94872807D01*
X133489599Y-94884208D01*
X133604329Y-94998739D01*
X133615740Y-95007751D01*
X133753743Y-95092816D01*
X133766924Y-95098963D01*
X133921210Y-95150138D01*
X133934586Y-95153005D01*
X134028938Y-95162672D01*
X134035354Y-95163000D01*
X134347885Y-95163000D01*
X134363124Y-95158525D01*
X134364329Y-95157135D01*
X134366000Y-95149452D01*
X134366000Y-95144884D01*
X134874000Y-95144884D01*
X134878475Y-95160123D01*
X134879865Y-95161328D01*
X134887548Y-95162999D01*
X135204595Y-95162999D01*
X135211114Y-95162662D01*
X135306706Y-95152743D01*
X135320100Y-95149851D01*
X135474284Y-95098412D01*
X135487462Y-95092239D01*
X135625307Y-95006937D01*
X135636708Y-94997901D01*
X135751239Y-94883171D01*
X135760251Y-94871760D01*
X135845316Y-94733757D01*
X135851463Y-94720576D01*
X135902638Y-94566290D01*
X135905505Y-94552914D01*
X135915172Y-94458562D01*
X135915500Y-94452146D01*
X135915500Y-94303347D01*
X137729501Y-94303347D01*
X137729838Y-94309866D01*
X137739757Y-94405458D01*
X137742649Y-94418852D01*
X137794088Y-94573036D01*
X137800261Y-94586214D01*
X137885563Y-94724059D01*
X137894599Y-94735460D01*
X138009329Y-94849991D01*
X138020740Y-94859003D01*
X138158743Y-94944068D01*
X138171924Y-94950215D01*
X138326210Y-95001390D01*
X138339586Y-95004257D01*
X138433938Y-95013924D01*
X138440354Y-95014252D01*
X138552885Y-95014252D01*
X138568124Y-95009777D01*
X138569329Y-95008387D01*
X138571000Y-95000704D01*
X138571000Y-94053367D01*
X138566525Y-94038128D01*
X138565135Y-94036923D01*
X138557452Y-94035252D01*
X137747616Y-94035252D01*
X137732377Y-94039727D01*
X137731172Y-94041117D01*
X137729501Y-94048800D01*
X137729501Y-94303347D01*
X135915500Y-94303347D01*
X135915500Y-94252115D01*
X135911025Y-94236876D01*
X135909635Y-94235671D01*
X135901952Y-94234000D01*
X134892115Y-94234000D01*
X134876876Y-94238475D01*
X134875671Y-94239865D01*
X134874000Y-94247548D01*
X134874000Y-95144884D01*
X134366000Y-95144884D01*
X134366000Y-94252115D01*
X134361525Y-94236876D01*
X134360135Y-94235671D01*
X134352452Y-94234000D01*
X133342616Y-94234000D01*
X133327377Y-94238475D01*
X133326172Y-94239865D01*
X133324501Y-94247548D01*
X133324501Y-94452095D01*
X133041000Y-94452095D01*
X133041000Y-93707885D01*
X133324500Y-93707885D01*
X133328975Y-93723124D01*
X133330365Y-93724329D01*
X133338048Y-93726000D01*
X134347885Y-93726000D01*
X134363124Y-93721525D01*
X134364329Y-93720135D01*
X134366000Y-93712452D01*
X134366000Y-93707885D01*
X134874000Y-93707885D01*
X134878475Y-93723124D01*
X134879865Y-93724329D01*
X134887548Y-93726000D01*
X135897384Y-93726000D01*
X135912623Y-93721525D01*
X135913828Y-93720135D01*
X135915499Y-93712452D01*
X135915499Y-93509137D01*
X137729500Y-93509137D01*
X137733975Y-93524376D01*
X137735365Y-93525581D01*
X137743048Y-93527252D01*
X138552885Y-93527252D01*
X138568124Y-93522777D01*
X138569329Y-93521387D01*
X138571000Y-93513704D01*
X138571000Y-92566368D01*
X138566525Y-92551129D01*
X138565135Y-92549924D01*
X138557452Y-92548253D01*
X138440405Y-92548253D01*
X138433886Y-92548590D01*
X138338294Y-92558509D01*
X138324900Y-92561401D01*
X138170716Y-92612840D01*
X138157538Y-92619013D01*
X138019693Y-92704315D01*
X138008292Y-92713351D01*
X137893761Y-92828081D01*
X137884749Y-92839492D01*
X137799684Y-92977495D01*
X137793537Y-92990676D01*
X137742362Y-93144962D01*
X137739495Y-93158338D01*
X137729828Y-93252690D01*
X137729500Y-93259107D01*
X137729500Y-93509137D01*
X135915499Y-93509137D01*
X135915499Y-93507905D01*
X135915162Y-93501386D01*
X135905243Y-93405794D01*
X135902351Y-93392400D01*
X135850912Y-93238216D01*
X135844739Y-93225038D01*
X135759437Y-93087193D01*
X135750401Y-93075792D01*
X135635671Y-92961261D01*
X135624260Y-92952249D01*
X135486257Y-92867184D01*
X135473076Y-92861037D01*
X135318790Y-92809862D01*
X135305414Y-92806995D01*
X135211062Y-92797328D01*
X135204645Y-92797000D01*
X134892115Y-92797000D01*
X134876876Y-92801475D01*
X134875671Y-92802865D01*
X134874000Y-92810548D01*
X134874000Y-93707885D01*
X134366000Y-93707885D01*
X134366000Y-92815116D01*
X134361525Y-92799877D01*
X134360135Y-92798672D01*
X134352452Y-92797001D01*
X134035405Y-92797001D01*
X134028886Y-92797338D01*
X133933294Y-92807257D01*
X133919900Y-92810149D01*
X133765716Y-92861588D01*
X133752538Y-92867761D01*
X133614693Y-92953063D01*
X133603292Y-92962099D01*
X133488761Y-93076829D01*
X133479749Y-93088240D01*
X133394684Y-93226243D01*
X133388537Y-93239424D01*
X133337362Y-93393710D01*
X133334495Y-93407086D01*
X133324828Y-93501438D01*
X133324500Y-93507855D01*
X133324500Y-93707885D01*
X133041000Y-93707885D01*
X133041000Y-93504600D01*
X133040663Y-93501350D01*
X133030738Y-93405692D01*
X133030737Y-93405688D01*
X133030026Y-93398834D01*
X132974050Y-93231054D01*
X132880978Y-93080652D01*
X132755803Y-92955695D01*
X132749572Y-92951854D01*
X132611468Y-92866725D01*
X132611466Y-92866724D01*
X132605238Y-92862885D01*
X132499357Y-92827766D01*
X132466833Y-92816978D01*
X132408473Y-92776547D01*
X132381236Y-92710983D01*
X132380500Y-92697385D01*
X132380500Y-89134500D01*
X132400502Y-89066379D01*
X132454158Y-89019886D01*
X132506500Y-89008500D01*
X132580400Y-89008500D01*
X132583646Y-89008163D01*
X132583650Y-89008163D01*
X132679308Y-88998238D01*
X132679312Y-88998237D01*
X132686166Y-88997526D01*
X132692702Y-88995345D01*
X132692704Y-88995345D01*
X132846998Y-88943868D01*
X132853946Y-88941550D01*
X133004348Y-88848478D01*
X133129305Y-88723303D01*
X133141331Y-88703794D01*
X133208156Y-88595384D01*
X133260929Y-88547890D01*
X133315416Y-88535500D01*
X138080980Y-88535500D01*
X138092214Y-88536030D01*
X138099719Y-88537708D01*
X138168012Y-88535562D01*
X138171969Y-88535500D01*
X138199983Y-88535500D01*
X138203908Y-88535004D01*
X138203909Y-88535004D01*
X138204004Y-88534992D01*
X138215849Y-88534059D01*
X138245670Y-88533122D01*
X138252282Y-88532914D01*
X138252283Y-88532914D01*
X138260205Y-88532665D01*
X138279749Y-88526987D01*
X138299112Y-88522977D01*
X138311440Y-88521420D01*
X138311442Y-88521420D01*
X138319299Y-88520427D01*
X138326663Y-88517511D01*
X138326668Y-88517510D01*
X138360556Y-88504093D01*
X138371785Y-88500248D01*
X138388465Y-88495402D01*
X138414393Y-88487869D01*
X138421220Y-88483831D01*
X138421223Y-88483830D01*
X138431906Y-88477512D01*
X138449664Y-88468812D01*
X138461215Y-88464239D01*
X138461221Y-88464235D01*
X138468588Y-88461319D01*
X138504491Y-88435234D01*
X138514410Y-88428719D01*
X138545768Y-88410174D01*
X138545772Y-88410171D01*
X138552598Y-88406134D01*
X138566982Y-88391750D01*
X138582016Y-88378909D01*
X138592073Y-88371602D01*
X138598487Y-88366942D01*
X138626778Y-88332744D01*
X138634767Y-88323965D01*
X139653328Y-87305405D01*
X139715640Y-87271379D01*
X139742423Y-87268500D01*
X139795487Y-87268500D01*
X139801939Y-87267128D01*
X139801944Y-87267128D01*
X139888888Y-87248647D01*
X139982288Y-87228794D01*
X139988319Y-87226109D01*
X140150722Y-87153803D01*
X140150724Y-87153802D01*
X140156752Y-87151118D01*
X140311253Y-87038866D01*
X140335500Y-87011937D01*
X140434621Y-86901852D01*
X140434622Y-86901851D01*
X140439040Y-86896944D01*
X140534527Y-86731556D01*
X140593542Y-86549928D01*
X140610575Y-86387867D01*
X140637588Y-86322210D01*
X140646781Y-86311951D01*
X141389407Y-85569326D01*
X141451717Y-85535302D01*
X141522533Y-85540367D01*
X141579368Y-85582914D01*
X141604179Y-85649434D01*
X141604500Y-85658423D01*
X141604500Y-85659697D01*
X141584498Y-85727818D01*
X141572136Y-85744006D01*
X141500960Y-85823056D01*
X141405473Y-85988444D01*
X141346458Y-86170072D01*
X141345768Y-86176633D01*
X141345768Y-86176635D01*
X141332378Y-86304038D01*
X141326496Y-86360000D01*
X141346458Y-86549928D01*
X141405473Y-86731556D01*
X141500960Y-86896944D01*
X141505378Y-86901851D01*
X141505379Y-86901852D01*
X141604500Y-87011937D01*
X141628747Y-87038866D01*
X141783248Y-87151118D01*
X141789276Y-87153802D01*
X141789278Y-87153803D01*
X141951681Y-87226109D01*
X141957712Y-87228794D01*
X142051113Y-87248647D01*
X142138056Y-87267128D01*
X142138061Y-87267128D01*
X142144513Y-87268500D01*
X142335487Y-87268500D01*
X142341939Y-87267128D01*
X142341944Y-87267128D01*
X142428888Y-87248647D01*
X142522288Y-87228794D01*
X142528319Y-87226109D01*
X142690722Y-87153803D01*
X142690724Y-87153802D01*
X142696752Y-87151118D01*
X142851253Y-87038866D01*
X142875500Y-87011937D01*
X142974621Y-86901852D01*
X142974622Y-86901851D01*
X142979040Y-86896944D01*
X143074527Y-86731556D01*
X143133542Y-86549928D01*
X143153504Y-86360000D01*
X143147622Y-86304038D01*
X143134232Y-86176635D01*
X143134232Y-86176633D01*
X143133542Y-86170072D01*
X143074527Y-85988444D01*
X142979040Y-85823056D01*
X142907864Y-85744007D01*
X142877146Y-85680000D01*
X142875500Y-85659697D01*
X142875500Y-85364500D01*
X142895502Y-85296379D01*
X142949158Y-85249886D01*
X143001500Y-85238500D01*
X143091502Y-85238500D01*
X143093950Y-85238307D01*
X143093958Y-85238307D01*
X143122421Y-85236067D01*
X143122426Y-85236066D01*
X143128831Y-85235562D01*
X143228769Y-85206528D01*
X143280988Y-85191357D01*
X143280990Y-85191356D01*
X143288601Y-85189145D01*
X143431807Y-85104453D01*
X143434489Y-85101771D01*
X143498861Y-85076498D01*
X143568484Y-85090400D01*
X143584312Y-85100572D01*
X143588193Y-85104453D01*
X143731399Y-85189145D01*
X143739010Y-85191356D01*
X143739012Y-85191357D01*
X143791231Y-85206528D01*
X143891169Y-85235562D01*
X143897574Y-85236066D01*
X143897579Y-85236067D01*
X143926042Y-85238307D01*
X143926050Y-85238307D01*
X143928498Y-85238500D01*
X144010500Y-85238500D01*
X144078621Y-85258502D01*
X144125114Y-85312158D01*
X144136500Y-85364500D01*
X144136500Y-89593830D01*
X144116498Y-89661951D01*
X144099595Y-89682925D01*
X141271672Y-92510847D01*
X141209360Y-92544873D01*
X141182577Y-92547752D01*
X140512100Y-92547752D01*
X140508854Y-92548089D01*
X140508850Y-92548089D01*
X140413192Y-92558014D01*
X140413188Y-92558015D01*
X140406334Y-92558726D01*
X140399798Y-92560907D01*
X140399796Y-92560907D01*
X140383428Y-92566368D01*
X140238554Y-92614702D01*
X140088152Y-92707774D01*
X139963195Y-92832949D01*
X139960398Y-92837487D01*
X139903147Y-92878076D01*
X139832224Y-92881306D01*
X139770813Y-92845680D01*
X139763438Y-92837184D01*
X139755402Y-92827045D01*
X139640671Y-92712513D01*
X139629260Y-92703501D01*
X139491257Y-92618436D01*
X139478076Y-92612289D01*
X139323790Y-92561114D01*
X139310414Y-92558247D01*
X139216062Y-92548580D01*
X139209645Y-92548252D01*
X139097115Y-92548252D01*
X139081876Y-92552727D01*
X139080671Y-92554117D01*
X139079000Y-92561800D01*
X139079000Y-94996136D01*
X139083475Y-95011375D01*
X139084865Y-95012580D01*
X139092548Y-95014251D01*
X139209595Y-95014251D01*
X139216114Y-95013914D01*
X139311706Y-95003995D01*
X139325100Y-95001103D01*
X139479284Y-94949664D01*
X139492462Y-94943491D01*
X139630307Y-94858189D01*
X139641708Y-94849153D01*
X139756238Y-94734424D01*
X139763294Y-94725490D01*
X139821212Y-94684429D01*
X139892135Y-94681199D01*
X139953546Y-94716826D01*
X139960346Y-94724659D01*
X139964022Y-94730600D01*
X140089197Y-94855557D01*
X140095427Y-94859397D01*
X140095428Y-94859398D01*
X140232788Y-94944068D01*
X140239762Y-94948367D01*
X140319505Y-94974816D01*
X140401111Y-95001884D01*
X140401113Y-95001884D01*
X140407639Y-95004049D01*
X140414475Y-95004749D01*
X140414478Y-95004750D01*
X140457531Y-95009161D01*
X140512100Y-95014752D01*
X141287900Y-95014752D01*
X141291146Y-95014415D01*
X141291150Y-95014415D01*
X141386808Y-95004490D01*
X141386812Y-95004489D01*
X141393666Y-95003778D01*
X141400202Y-95001597D01*
X141400204Y-95001597D01*
X141532306Y-94957524D01*
X141561446Y-94947802D01*
X141711848Y-94854730D01*
X141836805Y-94729555D01*
X141929615Y-94578990D01*
X141985297Y-94411113D01*
X141996000Y-94306652D01*
X141996000Y-93636174D01*
X142016002Y-93568053D01*
X142032905Y-93547079D01*
X145165483Y-90414502D01*
X145173809Y-90406926D01*
X145180303Y-90402805D01*
X145227086Y-90352986D01*
X145229840Y-90350145D01*
X145249639Y-90330346D01*
X145252063Y-90327221D01*
X145252071Y-90327212D01*
X145252137Y-90327126D01*
X145259845Y-90318101D01*
X145284790Y-90291537D01*
X145290217Y-90285758D01*
X145300023Y-90267921D01*
X145310873Y-90251405D01*
X145323350Y-90235319D01*
X145340976Y-90194586D01*
X145346193Y-90183938D01*
X145363749Y-90152003D01*
X145367569Y-90145055D01*
X145369540Y-90137380D01*
X145369542Y-90137374D01*
X145372631Y-90125341D01*
X145379034Y-90106639D01*
X145387117Y-90087960D01*
X145394060Y-90044125D01*
X145396467Y-90032503D01*
X145407500Y-89989534D01*
X145407500Y-89969187D01*
X145409051Y-89949476D01*
X145410995Y-89937202D01*
X145412235Y-89929373D01*
X145408059Y-89885196D01*
X145407500Y-89873338D01*
X145407500Y-80592032D01*
X145408030Y-80580793D01*
X145409709Y-80573281D01*
X145407562Y-80504969D01*
X145407500Y-80501012D01*
X145407500Y-80473017D01*
X145406992Y-80468994D01*
X145406059Y-80457152D01*
X145404914Y-80420718D01*
X145404665Y-80412796D01*
X145398988Y-80393257D01*
X145394979Y-80373896D01*
X145393422Y-80361568D01*
X145393419Y-80361558D01*
X145392427Y-80353701D01*
X145389509Y-80346330D01*
X145376094Y-80312446D01*
X145372249Y-80301219D01*
X145370269Y-80294403D01*
X145359869Y-80258607D01*
X145354479Y-80249494D01*
X145349510Y-80241091D01*
X145340813Y-80223341D01*
X145333319Y-80204412D01*
X145307238Y-80168514D01*
X145300722Y-80158594D01*
X145282173Y-80127229D01*
X145282171Y-80127226D01*
X145278135Y-80120402D01*
X145263747Y-80106014D01*
X145250906Y-80090980D01*
X145243602Y-80080927D01*
X145238942Y-80074513D01*
X145204750Y-80046227D01*
X145195971Y-80038238D01*
X144987332Y-79829599D01*
X144953306Y-79767287D01*
X144950815Y-79730618D01*
X144953307Y-79698959D01*
X144953307Y-79698949D01*
X144953500Y-79696502D01*
X144953500Y-79166842D01*
X144973502Y-79098721D01*
X145027158Y-79052228D01*
X145097432Y-79042124D01*
X145162012Y-79071618D01*
X145168593Y-79077745D01*
X145919822Y-79828975D01*
X146647595Y-80556748D01*
X146681621Y-80619060D01*
X146684500Y-80645843D01*
X146684500Y-88199697D01*
X146664498Y-88267818D01*
X146652136Y-88284007D01*
X146612371Y-88328171D01*
X146580960Y-88363056D01*
X146539287Y-88435236D01*
X146490102Y-88520427D01*
X146485473Y-88528444D01*
X146426458Y-88710072D01*
X146425768Y-88716633D01*
X146425768Y-88716635D01*
X146424523Y-88728483D01*
X146406496Y-88900000D01*
X146407186Y-88906565D01*
X146421512Y-89042866D01*
X146426458Y-89089928D01*
X146485473Y-89271556D01*
X146580960Y-89436944D01*
X146708747Y-89578866D01*
X146863248Y-89691118D01*
X146869276Y-89693802D01*
X146869278Y-89693803D01*
X147031681Y-89766109D01*
X147037712Y-89768794D01*
X147131112Y-89788647D01*
X147218056Y-89807128D01*
X147218061Y-89807128D01*
X147224513Y-89808500D01*
X147415487Y-89808500D01*
X147421939Y-89807128D01*
X147421944Y-89807128D01*
X147508887Y-89788647D01*
X147602288Y-89768794D01*
X147608319Y-89766109D01*
X147770722Y-89693803D01*
X147770724Y-89693802D01*
X147776752Y-89691118D01*
X147931253Y-89578866D01*
X148059040Y-89436944D01*
X148154527Y-89271556D01*
X148213542Y-89089928D01*
X148218489Y-89042866D01*
X148232814Y-88906565D01*
X148233504Y-88900000D01*
X148215477Y-88728483D01*
X148214232Y-88716635D01*
X148214232Y-88716633D01*
X148213542Y-88710072D01*
X148154527Y-88528444D01*
X148149899Y-88520427D01*
X148100713Y-88435236D01*
X148059040Y-88363056D01*
X148027630Y-88328171D01*
X147987864Y-88284007D01*
X147957146Y-88220000D01*
X147955500Y-88199697D01*
X147955500Y-80409452D01*
X147956030Y-80398213D01*
X147957709Y-80390701D01*
X147955562Y-80322389D01*
X147955500Y-80318432D01*
X147955500Y-80290437D01*
X147954992Y-80286414D01*
X147954059Y-80274572D01*
X147953797Y-80266217D01*
X147952665Y-80230215D01*
X147946987Y-80210671D01*
X147942977Y-80191308D01*
X147941420Y-80178980D01*
X147941420Y-80178978D01*
X147940427Y-80171121D01*
X147937511Y-80163757D01*
X147937510Y-80163752D01*
X147924093Y-80129864D01*
X147920248Y-80118635D01*
X147910080Y-80083639D01*
X147907869Y-80076027D01*
X147899001Y-80061032D01*
X147897510Y-80058511D01*
X147888813Y-80040761D01*
X147881319Y-80021832D01*
X147855238Y-79985934D01*
X147848722Y-79976014D01*
X147830173Y-79944649D01*
X147830171Y-79944646D01*
X147826135Y-79937822D01*
X147811747Y-79923434D01*
X147798906Y-79908400D01*
X147791602Y-79898347D01*
X147786942Y-79891933D01*
X147752750Y-79863647D01*
X147743971Y-79855658D01*
X145119145Y-77230832D01*
X145085119Y-77168520D01*
X145090184Y-77097705D01*
X145132731Y-77040869D01*
X145156991Y-77026630D01*
X145230722Y-76993803D01*
X145230724Y-76993802D01*
X145236752Y-76991118D01*
X145391253Y-76878866D01*
X145401487Y-76867500D01*
X145514621Y-76741852D01*
X145514622Y-76741851D01*
X145519040Y-76736944D01*
X145601268Y-76594521D01*
X145611223Y-76577279D01*
X145611224Y-76577278D01*
X145614527Y-76571556D01*
X145673542Y-76389928D01*
X145693504Y-76200000D01*
X145673542Y-76010072D01*
X145614527Y-75828444D01*
X145519040Y-75663056D01*
X145391253Y-75521134D01*
X145236752Y-75408882D01*
X145230724Y-75406198D01*
X145230722Y-75406197D01*
X145068319Y-75333891D01*
X145068318Y-75333891D01*
X145062288Y-75331206D01*
X144964559Y-75310433D01*
X144881944Y-75292872D01*
X144881939Y-75292872D01*
X144875487Y-75291500D01*
X144684513Y-75291500D01*
X144678061Y-75292872D01*
X144678056Y-75292872D01*
X144595441Y-75310433D01*
X144519368Y-75326603D01*
X144448578Y-75321201D01*
X144391946Y-75278384D01*
X144367452Y-75211747D01*
X144382873Y-75142445D01*
X144404077Y-75114261D01*
X146352933Y-73165405D01*
X146415245Y-73131379D01*
X146442028Y-73128500D01*
X148868134Y-73128500D01*
X148930316Y-73121745D01*
X149066705Y-73070615D01*
X149183261Y-72983261D01*
X149270615Y-72866705D01*
X149321745Y-72730316D01*
X149328500Y-72668134D01*
X149328500Y-72008500D01*
X149348502Y-71940379D01*
X149402158Y-71893886D01*
X149454500Y-71882500D01*
X150039472Y-71882500D01*
X150107593Y-71902502D01*
X150128567Y-71919405D01*
X153519595Y-75310433D01*
X153553621Y-75372745D01*
X153556500Y-75399528D01*
X153556500Y-76165400D01*
X153567474Y-76271165D01*
X153623450Y-76438945D01*
X153716522Y-76589348D01*
X153841697Y-76714305D01*
X153847927Y-76718145D01*
X153847928Y-76718146D01*
X153985090Y-76802694D01*
X153992262Y-76807115D01*
X154072005Y-76833564D01*
X154153611Y-76860632D01*
X154153613Y-76860632D01*
X154160139Y-76862797D01*
X154166975Y-76863497D01*
X154166978Y-76863498D01*
X154206040Y-76867500D01*
X154264600Y-76873500D01*
X155615400Y-76873500D01*
X155618646Y-76873163D01*
X155618650Y-76873163D01*
X155714307Y-76863238D01*
X155714311Y-76863237D01*
X155721165Y-76862526D01*
X155727701Y-76860345D01*
X155727703Y-76860345D01*
X155859805Y-76816272D01*
X155888945Y-76806550D01*
X156039348Y-76713478D01*
X156164305Y-76588303D01*
X156257115Y-76437738D01*
X156312797Y-76269861D01*
X156323500Y-76165400D01*
X156323500Y-75139600D01*
X156312526Y-75033835D01*
X156256550Y-74866055D01*
X156163478Y-74715652D01*
X156038303Y-74590695D01*
X155887738Y-74497885D01*
X155807995Y-74471436D01*
X155726389Y-74444368D01*
X155726387Y-74444368D01*
X155719861Y-74442203D01*
X155713025Y-74441503D01*
X155713022Y-74441502D01*
X155669969Y-74437091D01*
X155615400Y-74431500D01*
X154849528Y-74431500D01*
X154781407Y-74411498D01*
X154760433Y-74394595D01*
X150994310Y-70628472D01*
X150981923Y-70614059D01*
X150973295Y-70602335D01*
X150968954Y-70596436D01*
X150928445Y-70562021D01*
X150920929Y-70555091D01*
X150915185Y-70549347D01*
X150912311Y-70547073D01*
X150912304Y-70547067D01*
X150892789Y-70531628D01*
X150889385Y-70528837D01*
X150839028Y-70486055D01*
X150839024Y-70486052D01*
X150833449Y-70481316D01*
X150826932Y-70477988D01*
X150821868Y-70474611D01*
X150816644Y-70471384D01*
X150810900Y-70466840D01*
X150784609Y-70454552D01*
X150744418Y-70435768D01*
X150740467Y-70433837D01*
X150681617Y-70403787D01*
X150675096Y-70400457D01*
X150667981Y-70398716D01*
X150662235Y-70396579D01*
X150656452Y-70394655D01*
X150649821Y-70391556D01*
X150577943Y-70376606D01*
X150573671Y-70375639D01*
X150502388Y-70358196D01*
X150496789Y-70357849D01*
X150496785Y-70357848D01*
X150491170Y-70357500D01*
X150491172Y-70357461D01*
X150487271Y-70357228D01*
X150482912Y-70356839D01*
X150475744Y-70355348D01*
X150468427Y-70355546D01*
X150397923Y-70357454D01*
X150394514Y-70357500D01*
X149454500Y-70357500D01*
X149386379Y-70337498D01*
X149339886Y-70283842D01*
X149328500Y-70231500D01*
X149328500Y-69571866D01*
X149321745Y-69509684D01*
X149270615Y-69373295D01*
X149183261Y-69256739D01*
X149066705Y-69169385D01*
X148930316Y-69118255D01*
X148868134Y-69111500D01*
X145771866Y-69111500D01*
X145709684Y-69118255D01*
X145573295Y-69169385D01*
X145456739Y-69256739D01*
X145369385Y-69373295D01*
X145318255Y-69509684D01*
X145311500Y-69571866D01*
X145311500Y-71997972D01*
X145291498Y-72066093D01*
X145274595Y-72087067D01*
X140042106Y-77319556D01*
X139988164Y-77351458D01*
X139929012Y-77368643D01*
X139929010Y-77368644D01*
X139921399Y-77370855D01*
X139914572Y-77374892D01*
X139914573Y-77374892D01*
X139785020Y-77451509D01*
X139785017Y-77451511D01*
X139778193Y-77455547D01*
X139660547Y-77573193D01*
X139656511Y-77580017D01*
X139656509Y-77580020D01*
X139626064Y-77631500D01*
X139575855Y-77716399D01*
X139529438Y-77876169D01*
X139528934Y-77882574D01*
X139528933Y-77882579D01*
X139526693Y-77911042D01*
X139526500Y-77913498D01*
X139526500Y-77978500D01*
X139506498Y-78046621D01*
X139452842Y-78093114D01*
X139400500Y-78104500D01*
X133315543Y-78104500D01*
X133247422Y-78084498D01*
X133208399Y-78044803D01*
X133191181Y-78016978D01*
X133128478Y-77915652D01*
X133003303Y-77790695D01*
X132882773Y-77716399D01*
X132858968Y-77701725D01*
X132858966Y-77701724D01*
X132852738Y-77697885D01*
X132692254Y-77644655D01*
X132691389Y-77644368D01*
X132691387Y-77644368D01*
X132684861Y-77642203D01*
X132678025Y-77641503D01*
X132678022Y-77641502D01*
X132634969Y-77637091D01*
X132580400Y-77631500D01*
X131579600Y-77631500D01*
X131576354Y-77631837D01*
X131576350Y-77631837D01*
X131480692Y-77641762D01*
X131480688Y-77641763D01*
X131473834Y-77642474D01*
X131467298Y-77644655D01*
X131467296Y-77644655D01*
X131344933Y-77685479D01*
X131306054Y-77698450D01*
X131155652Y-77791522D01*
X131030695Y-77916697D01*
X131026855Y-77922927D01*
X131026854Y-77922928D01*
X130968881Y-78016978D01*
X130937885Y-78067262D01*
X130882203Y-78235139D01*
X130871500Y-78339600D01*
X130871500Y-79140400D01*
X130871837Y-79143646D01*
X130871837Y-79143650D01*
X130874244Y-79166842D01*
X130882474Y-79246166D01*
X130938450Y-79413946D01*
X131031522Y-79564348D01*
X131036704Y-79569521D01*
X131118109Y-79650784D01*
X131152188Y-79713066D01*
X131147185Y-79783886D01*
X131118264Y-79828975D01*
X131060460Y-79886880D01*
X131030695Y-79916697D01*
X131026855Y-79922927D01*
X131026854Y-79922928D01*
X130948542Y-80049974D01*
X130937885Y-80067262D01*
X130920259Y-80120402D01*
X130886362Y-80222601D01*
X130882203Y-80235139D01*
X130881503Y-80241975D01*
X130881502Y-80241978D01*
X130877221Y-80283767D01*
X130871500Y-80339600D01*
X130871500Y-81140400D01*
X130882474Y-81246166D01*
X130884655Y-81252702D01*
X130884655Y-81252704D01*
X130893762Y-81280000D01*
X130938450Y-81413946D01*
X131031522Y-81564348D01*
X131156697Y-81689305D01*
X131307262Y-81782115D01*
X131314207Y-81784419D01*
X131314208Y-81784419D01*
X131358168Y-81799000D01*
X131416528Y-81839432D01*
X131443764Y-81904996D01*
X131444500Y-81918593D01*
X131444500Y-84721470D01*
X131424498Y-84789591D01*
X131370842Y-84836084D01*
X131358376Y-84840994D01*
X131306054Y-84858450D01*
X131155652Y-84951522D01*
X131030695Y-85076697D01*
X131026855Y-85082927D01*
X131026854Y-85082928D01*
X131011345Y-85108089D01*
X130937885Y-85227262D01*
X130882203Y-85395139D01*
X130881503Y-85401975D01*
X130881502Y-85401978D01*
X130877091Y-85445031D01*
X130871500Y-85499600D01*
X130871500Y-86300400D01*
X130871837Y-86303646D01*
X130871837Y-86303650D01*
X130881605Y-86397789D01*
X130882474Y-86406166D01*
X130938450Y-86573946D01*
X131031522Y-86724348D01*
X131036704Y-86729521D01*
X131118109Y-86810784D01*
X131152188Y-86873066D01*
X131147185Y-86943886D01*
X131118264Y-86988975D01*
X131068460Y-87038866D01*
X131030695Y-87076697D01*
X130937885Y-87227262D01*
X130882203Y-87395139D01*
X130871500Y-87499600D01*
X130871500Y-88300400D01*
X130871837Y-88303646D01*
X130871837Y-88303650D01*
X130881615Y-88397885D01*
X130882474Y-88406166D01*
X130884655Y-88412702D01*
X130884655Y-88412704D01*
X130901849Y-88464239D01*
X130938450Y-88573946D01*
X131031522Y-88724348D01*
X131072518Y-88765272D01*
X131106597Y-88827554D01*
X131109500Y-88854445D01*
X131109500Y-92697278D01*
X131089498Y-92765399D01*
X131035842Y-92811892D01*
X131023383Y-92816799D01*
X130883554Y-92863450D01*
X130733152Y-92956522D01*
X130608195Y-93081697D01*
X130604355Y-93087927D01*
X130604354Y-93087928D01*
X130560953Y-93158338D01*
X130515385Y-93232262D01*
X130459703Y-93400139D01*
X130449000Y-93504600D01*
X130449000Y-94455400D01*
X127508500Y-94455400D01*
X127508500Y-72709654D01*
X141015618Y-72709654D01*
X141022673Y-72719627D01*
X141053679Y-72745551D01*
X141060598Y-72750579D01*
X141285272Y-72891515D01*
X141292807Y-72895556D01*
X141534520Y-73004694D01*
X141542551Y-73007680D01*
X141796832Y-73083002D01*
X141805184Y-73084869D01*
X142067340Y-73124984D01*
X142075874Y-73125700D01*
X142341045Y-73129867D01*
X142349596Y-73129418D01*
X142612883Y-73097557D01*
X142621284Y-73095955D01*
X142877824Y-73028653D01*
X142885926Y-73025926D01*
X143130949Y-72924434D01*
X143138617Y-72920628D01*
X143367598Y-72786822D01*
X143374679Y-72782009D01*
X143454655Y-72719301D01*
X143463125Y-72707442D01*
X143456608Y-72695818D01*
X142252812Y-71492022D01*
X142238868Y-71484408D01*
X142237035Y-71484539D01*
X142230420Y-71488790D01*
X141022910Y-72696300D01*
X141015618Y-72709654D01*
X127508500Y-72709654D01*
X127508500Y-71103204D01*
X140227665Y-71103204D01*
X140242932Y-71367969D01*
X140244005Y-71376470D01*
X140295065Y-71636722D01*
X140297276Y-71644974D01*
X140383184Y-71895894D01*
X140386499Y-71903779D01*
X140505664Y-72140713D01*
X140510020Y-72148079D01*
X140639347Y-72336250D01*
X140649601Y-72344594D01*
X140663342Y-72337448D01*
X141867978Y-71132812D01*
X141874356Y-71121132D01*
X142604408Y-71121132D01*
X142604539Y-71122965D01*
X142608790Y-71129580D01*
X143815730Y-72336520D01*
X143827939Y-72343187D01*
X143839439Y-72334497D01*
X143936831Y-72201913D01*
X143941418Y-72194685D01*
X144067962Y-71961621D01*
X144071530Y-71953827D01*
X144165271Y-71705750D01*
X144167748Y-71697544D01*
X144226954Y-71439038D01*
X144228294Y-71430577D01*
X144252031Y-71164616D01*
X144252277Y-71159677D01*
X144252666Y-71122485D01*
X144252523Y-71117519D01*
X144234362Y-70851123D01*
X144233201Y-70842649D01*
X144179419Y-70582944D01*
X144177120Y-70574709D01*
X144088588Y-70324705D01*
X144085191Y-70316854D01*
X143963550Y-70081178D01*
X143959122Y-70073866D01*
X143840031Y-69904417D01*
X143829509Y-69896037D01*
X143816121Y-69903089D01*
X142612022Y-71107188D01*
X142604408Y-71121132D01*
X141874356Y-71121132D01*
X141875592Y-71118868D01*
X141875461Y-71117035D01*
X141871210Y-71110420D01*
X140663814Y-69903024D01*
X140651804Y-69896466D01*
X140640064Y-69905434D01*
X140531935Y-70055911D01*
X140527418Y-70063196D01*
X140403325Y-70297567D01*
X140399839Y-70305395D01*
X140308700Y-70554446D01*
X140306311Y-70562670D01*
X140249812Y-70821795D01*
X140248563Y-70830250D01*
X140227754Y-71094653D01*
X140227665Y-71103204D01*
X127508500Y-71103204D01*
X127508500Y-69532500D01*
X141016584Y-69532500D01*
X141022980Y-69543770D01*
X142227188Y-70747978D01*
X142241132Y-70755592D01*
X142242965Y-70755461D01*
X142249580Y-70751210D01*
X143456604Y-69544186D01*
X143463795Y-69531017D01*
X143456473Y-69520780D01*
X143409233Y-69482115D01*
X143402261Y-69477160D01*
X143176122Y-69338582D01*
X143168552Y-69334624D01*
X142925704Y-69228022D01*
X142917644Y-69225120D01*
X142662592Y-69152467D01*
X142654214Y-69150685D01*
X142391656Y-69113318D01*
X142383111Y-69112691D01*
X142117908Y-69111302D01*
X142109374Y-69111839D01*
X141846433Y-69146456D01*
X141838035Y-69148149D01*
X141582238Y-69218127D01*
X141574143Y-69220946D01*
X141330199Y-69324997D01*
X141322577Y-69328881D01*
X141095013Y-69465075D01*
X141087981Y-69469962D01*
X141025053Y-69520377D01*
X141016584Y-69532500D01*
X127508500Y-69532500D01*
X127508500Y-64134500D01*
X127528502Y-64066379D01*
X127582158Y-64019886D01*
X127634500Y-64008500D01*
X159385500Y-64008500D01*
X159453621Y-64028502D01*
G37*
%TD.AperFunction*%
%TA.AperFunction,Conductor*%
G36*
X139468621Y-79395502D02*
G01*
X139515114Y-79449158D01*
X139526500Y-79501500D01*
X139526500Y-79696502D01*
X139526693Y-79698950D01*
X139526693Y-79698958D01*
X139527804Y-79713066D01*
X139529438Y-79733831D01*
X139546199Y-79791522D01*
X139566054Y-79859864D01*
X139575855Y-79893601D01*
X139579892Y-79900427D01*
X139656509Y-80029980D01*
X139656511Y-80029983D01*
X139660547Y-80036807D01*
X139778193Y-80154453D01*
X139785017Y-80158489D01*
X139785020Y-80158491D01*
X139862669Y-80204412D01*
X139921399Y-80239145D01*
X139929010Y-80241356D01*
X139929012Y-80241357D01*
X139931150Y-80241978D01*
X140081169Y-80285562D01*
X140087574Y-80286066D01*
X140087579Y-80286067D01*
X140112029Y-80287991D01*
X140115386Y-80288255D01*
X140181727Y-80313541D01*
X140223867Y-80370679D01*
X140231500Y-80413867D01*
X140231500Y-82146638D01*
X140211498Y-82214759D01*
X140157842Y-82261252D01*
X140115381Y-82272250D01*
X140087664Y-82274430D01*
X140075069Y-82276730D01*
X139929210Y-82319107D01*
X139914779Y-82325352D01*
X139785322Y-82401911D01*
X139772896Y-82411551D01*
X139666551Y-82517896D01*
X139656911Y-82530322D01*
X139580352Y-82659779D01*
X139574107Y-82674210D01*
X139531731Y-82820065D01*
X139529430Y-82832667D01*
X139527193Y-82861084D01*
X139527000Y-82866014D01*
X139527000Y-83482885D01*
X139531475Y-83498124D01*
X139532865Y-83499329D01*
X139540548Y-83501000D01*
X140463000Y-83501000D01*
X140531121Y-83521002D01*
X140577614Y-83574658D01*
X140589000Y-83627000D01*
X140589000Y-83883000D01*
X140568998Y-83951121D01*
X140515342Y-83997614D01*
X140463000Y-84009000D01*
X139545116Y-84009000D01*
X139529877Y-84013475D01*
X139528672Y-84014865D01*
X139527001Y-84022548D01*
X139527001Y-84643984D01*
X139527195Y-84648920D01*
X139529430Y-84677336D01*
X139531730Y-84689931D01*
X139574107Y-84835790D01*
X139580352Y-84850221D01*
X139656911Y-84979678D01*
X139666551Y-84992104D01*
X139772896Y-85098449D01*
X139785323Y-85108089D01*
X139813820Y-85124942D01*
X139862273Y-85176835D01*
X139874978Y-85246686D01*
X139847903Y-85312317D01*
X139838776Y-85322491D01*
X139746672Y-85414595D01*
X139684360Y-85448621D01*
X139657577Y-85451500D01*
X139604513Y-85451500D01*
X139598061Y-85452872D01*
X139598056Y-85452872D01*
X139511112Y-85471353D01*
X139417712Y-85491206D01*
X139411682Y-85493891D01*
X139411681Y-85493891D01*
X139249278Y-85566197D01*
X139249276Y-85566198D01*
X139243248Y-85568882D01*
X139237907Y-85572762D01*
X139237906Y-85572763D01*
X139187843Y-85609136D01*
X139088747Y-85681134D01*
X139084326Y-85686044D01*
X139084325Y-85686045D01*
X139017376Y-85760400D01*
X138960960Y-85823056D01*
X138865473Y-85988444D01*
X138806458Y-86170072D01*
X138805768Y-86176633D01*
X138805768Y-86176635D01*
X138789425Y-86332132D01*
X138762412Y-86397789D01*
X138753210Y-86408058D01*
X137933671Y-87227596D01*
X137871359Y-87261621D01*
X137844576Y-87264500D01*
X133315543Y-87264500D01*
X133247422Y-87244498D01*
X133208399Y-87204803D01*
X133176840Y-87153803D01*
X133128478Y-87075652D01*
X133041891Y-86989216D01*
X133007812Y-86926934D01*
X133012815Y-86856114D01*
X133041736Y-86811025D01*
X133124134Y-86728483D01*
X133129305Y-86723303D01*
X133222115Y-86572738D01*
X133277797Y-86404861D01*
X133288500Y-86300400D01*
X133288500Y-85499600D01*
X133283652Y-85452872D01*
X133278238Y-85400692D01*
X133278237Y-85400688D01*
X133277526Y-85393834D01*
X133267740Y-85364500D01*
X133223868Y-85233002D01*
X133221550Y-85226054D01*
X133128478Y-85075652D01*
X133003303Y-84950695D01*
X132997072Y-84946854D01*
X132858968Y-84861725D01*
X132858966Y-84861724D01*
X132852738Y-84857885D01*
X132824778Y-84848611D01*
X132801832Y-84841000D01*
X132743472Y-84800568D01*
X132716236Y-84735004D01*
X132715500Y-84721407D01*
X132715500Y-82041500D01*
X132735502Y-81973379D01*
X132789158Y-81926886D01*
X132841500Y-81915500D01*
X133913601Y-81915500D01*
X133981722Y-81935502D01*
X133998908Y-81950109D01*
X133999420Y-81949540D01*
X134004332Y-81953963D01*
X134008747Y-81958866D01*
X134163248Y-82071118D01*
X134169276Y-82073802D01*
X134169278Y-82073803D01*
X134331681Y-82146109D01*
X134337712Y-82148794D01*
X134431112Y-82168647D01*
X134518056Y-82187128D01*
X134518061Y-82187128D01*
X134524513Y-82188500D01*
X134715487Y-82188500D01*
X134721939Y-82187128D01*
X134721944Y-82187128D01*
X134808888Y-82168647D01*
X134902288Y-82148794D01*
X134908319Y-82146109D01*
X135070722Y-82073803D01*
X135070724Y-82073802D01*
X135076752Y-82071118D01*
X135231253Y-81958866D01*
X135359040Y-81816944D01*
X135454527Y-81651556D01*
X135513542Y-81469928D01*
X135533504Y-81280000D01*
X135518832Y-81140400D01*
X135514232Y-81096635D01*
X135514232Y-81096633D01*
X135513542Y-81090072D01*
X135454527Y-80908444D01*
X135359040Y-80743056D01*
X135231253Y-80601134D01*
X135096180Y-80502997D01*
X135082094Y-80492763D01*
X135082093Y-80492762D01*
X135076752Y-80488882D01*
X135070724Y-80486198D01*
X135070722Y-80486197D01*
X134908319Y-80413891D01*
X134908318Y-80413891D01*
X134902288Y-80411206D01*
X134805820Y-80390701D01*
X134721944Y-80372872D01*
X134721939Y-80372872D01*
X134715487Y-80371500D01*
X134524513Y-80371500D01*
X134518061Y-80372872D01*
X134518056Y-80372872D01*
X134434180Y-80390701D01*
X134337712Y-80411206D01*
X134331682Y-80413891D01*
X134331681Y-80413891D01*
X134169278Y-80486197D01*
X134169276Y-80486198D01*
X134163248Y-80488882D01*
X134157907Y-80492762D01*
X134157906Y-80492763D01*
X134143820Y-80502997D01*
X134008747Y-80601134D01*
X134004332Y-80606037D01*
X133999420Y-80610460D01*
X133997779Y-80608638D01*
X133946790Y-80640050D01*
X133913601Y-80644500D01*
X133414500Y-80644500D01*
X133346379Y-80624498D01*
X133299886Y-80570842D01*
X133288500Y-80518500D01*
X133288500Y-80339600D01*
X133288163Y-80336350D01*
X133278238Y-80240692D01*
X133278237Y-80240688D01*
X133277526Y-80233834D01*
X133273779Y-80222601D01*
X133223868Y-80073002D01*
X133221550Y-80066054D01*
X133128478Y-79915652D01*
X133041891Y-79829216D01*
X133007812Y-79766934D01*
X133012815Y-79696114D01*
X133041736Y-79651025D01*
X133124134Y-79568483D01*
X133129305Y-79563303D01*
X133167401Y-79501500D01*
X133208156Y-79435384D01*
X133260929Y-79387890D01*
X133315416Y-79375500D01*
X139400500Y-79375500D01*
X139468621Y-79395502D01*
G37*
%TD.AperFunction*%
%TD*%
M02*
